<svg width="14" height="16" viewBox="0 0 14 16" fill="none" xmlns="http://www.w3.org/2000/svg">
<g id="Group">
<path id="Vector" d="M13.2174 11.1876C13.0612 11.1876 12.9348 11.3134 12.9348 11.4688V14.9376H1.06522V11.4688C1.06522 11.3134 0.938797 11.1876 0.782609 11.1876C0.62642 11.1876 0.5 11.3134 0.5 11.4688V15.2188C0.5 15.3742 0.62642 15.5001 0.782609 15.5001H13.2174C13.3736 15.5001 13.5 15.3742 13.5 15.2188V11.4688C13.5 11.3136 13.3736 11.1876 13.2174 11.1876Z" fill="#111111"/>
<path id="Vector_2" d="M6.80123 12.2302C6.85644 12.2851 6.92878 12.3125 7.00113 12.3125C7.07348 12.3125 7.14583 12.2851 7.20103 12.2302L9.65031 9.79269C9.76071 9.683 9.76071 9.50469 9.65031 9.395C9.5399 9.28513 9.3611 9.28513 9.2507 9.395L7.28393 11.3523V0.78125C7.28393 0.625812 7.15751 0.5 7.00132 0.5C6.84513 0.5 6.71871 0.625812 6.71871 0.78125V11.3523L4.75194 9.395C4.64154 9.28513 4.46274 9.28513 4.35234 9.395C4.24193 9.50469 4.24193 9.683 4.35234 9.79269L6.80123 12.2302Z" fill="#111111"/>
</g>
</svg>
