<svg width="11" height="10" viewBox="0 0 11 10" fill="none" xmlns="http://www.w3.org/2000/svg">
<g id="Tilda_Icons_27bu_18 5" clip-path="url(#clip0_447_926)">
<path id="Vector" d="M5.39431 10C2.4199 10 0 7.75717 0 5.00025C0 2.24309 2.4199 0 5.39431 0C6.57693 0 7.70637 0.353597 8.66041 1.0227C8.84614 1.15284 8.88496 1.40068 8.74717 1.57614C8.60965 1.75148 8.3475 1.78855 8.16177 1.65829C7.35303 1.09114 6.39603 0.791371 5.39431 0.791371C2.88148 0.791371 0.837073 2.67946 0.837073 5.00013C0.837073 7.32066 2.88148 9.20863 5.39431 9.20863C7.90727 9.20863 9.95168 7.32066 9.95168 5.00013C9.95168 4.6751 9.9134 4.35908 9.83806 4.06071C9.78448 3.84818 9.92321 3.63475 10.148 3.58396C10.372 3.53318 10.5985 3.66433 10.6523 3.877C10.7428 4.23554 10.7888 4.61339 10.7888 5.00025C10.7886 7.75717 8.36885 10 5.39431 10Z" fill="#111111"/>
<path id="Vector_2" d="M5.28934 7.39766C5.17854 7.39766 5.07205 7.35615 4.99335 7.28187L2.1343 4.57917C1.97086 4.42466 1.97086 4.17416 2.1343 4.01964C2.29774 3.86512 2.56271 3.865 2.72615 4.01964L5.27201 6.42626L10.27 1.1336C10.4241 0.97058 10.6888 0.956487 10.8609 1.10199C11.0334 1.24749 11.0484 1.49761 10.8945 1.66063L5.60158 7.26549C5.5249 7.34675 5.41625 7.39449 5.30129 7.39754C5.29713 7.39766 5.29323 7.39766 5.28934 7.39766Z" fill="#111111"/>
</g>
<defs>
<clipPath id="clip0_447_926">
<rect width="11" height="10" fill="white"/>
</clipPath>
</defs>
</svg>
