<svg width="41" height="41" viewBox="0 0 41 41" fill="none" xmlns="http://www.w3.org/2000/svg">
<g id="&#208;&#146;&#208;&#176;&#209;&#130;&#209;&#129; &#208;&#176;&#208;&#191;">
<path id="Vector" d="M35.0273 5.95825C31.1732 2.11783 26.0472 0.00203376 20.5862 0C9.33431 0 0.175746 9.11329 0.171659 20.3153C0.170297 23.896 1.11034 27.3914 2.89641 30.4719L0 41L10.822 38.1751C13.8036 39.794 17.1612 40.6468 20.5773 40.6482H20.5855C31.8367 40.6482 40.9952 31.5335 41 20.3322C41.0034 14.9027 38.8822 9.79867 35.0273 5.95825ZM20.5868 37.2165H20.58C17.5351 37.2152 14.5488 36.401 11.9439 34.8628L11.3241 34.4967L4.90183 36.1732L6.61569 29.9417L6.21243 29.3025C4.51423 26.6138 3.61711 23.5069 3.61847 20.3159C3.62187 11.0054 11.2341 3.43096 20.593 3.43096C25.1249 3.43232 29.3851 5.19152 32.5887 8.38317C35.7923 11.5748 37.5552 15.8173 37.5539 20.3295C37.5505 29.6414 29.9389 37.2165 20.5868 37.2165Z" fill="#111111"/>
<path id="Vector_2" d="M29.8958 24.5704C29.3855 24.3162 26.8781 23.0884 26.4101 22.919C25.9428 22.7495 25.6022 22.6647 25.2623 23.1732C24.9224 23.6816 23.9449 24.8246 23.6472 25.1636C23.3495 25.5025 23.0518 25.5445 22.5423 25.2903C22.0321 25.0361 20.3884 24.5005 18.4402 22.7705C16.9239 21.4241 15.9 19.7619 15.6024 19.2541C15.3047 18.7457 15.5704 18.4711 15.8258 18.2182C16.0554 17.9905 16.336 17.6251 16.5908 17.3288C16.8455 17.0326 16.9307 16.8204 17.101 16.4821C17.2713 16.1431 17.1861 15.8469 17.0587 15.5927C16.9314 15.3384 15.9109 12.8396 15.4859 11.8234C15.0717 10.8337 14.6514 10.9679 14.3381 10.9523C14.0411 10.9374 13.7005 10.9347 13.3606 10.9347C13.0207 10.9347 12.4682 11.0614 12.0002 11.5699C11.5329 12.0783 10.2148 13.306 10.2148 15.8048C10.2148 18.3037 12.0425 20.7177 12.2979 21.056C12.5527 21.395 15.8946 26.5221 21.0117 28.7213C22.229 29.2446 23.1785 29.5565 23.9197 29.7904C25.1417 30.1768 26.2534 30.1225 27.1329 29.9917C28.1131 29.846 30.1505 28.764 30.5756 27.5783C31.0006 26.3926 31.0006 25.3757 30.8733 25.1642C30.7459 24.952 30.406 24.8246 29.8958 24.5704Z" fill="#111111"/>
</g>
</svg>
